<svg viewBox="10 5 60 90" xmlns="http://www.w3.org/2000/svg">
  <g transform="translate(40, 95)">

    <line x1="0" y1="0" x2="0" y2="-18" stroke="#e8e0d0" stroke-width="1.5" stroke-linecap="round" opacity="0.5"/>

    <path d="M0,-18 C-4,-22 -12,-23 -16,-30 C-10,-25 -4,-26 0,-30" fill="none" stroke="#c9873a" stroke-width="1.2" stroke-linecap="round" stroke-linejoin="round"/>
    <path d="M0,-18 C4,-22 12,-23 16,-30 C10,-25 4,-26 0,-30" fill="none" stroke="#c9873a" stroke-width="1.2" stroke-linecap="round" stroke-linejoin="round"/>

    <path d="M0,-30 C-5,-35 -16,-36 -20,-44 C-14,-39 -5,-40 0,-44" fill="none" stroke="#c9873a" stroke-width="1.1" stroke-linecap="round" stroke-linejoin="round"/>
    <path d="M0,-30 C5,-35 16,-36 20,-44 C14,-39 5,-40 0,-44" fill="none" stroke="#c9873a" stroke-width="1.1" stroke-linecap="round" stroke-linejoin="round"/>

    <path d="M0,-44 C-4,-50 -12,-51 -14,-59 C-9,-53 -3,-54 0,-58" fill="none" stroke="#c9873a" stroke-width="1" stroke-linecap="round" stroke-linejoin="round"/>
    <path d="M0,-44 C4,-50 12,-51 14,-59 C9,-53 3,-54 0,-58" fill="none" stroke="#c9873a" stroke-width="1" stroke-linecap="round" stroke-linejoin="round"/>

    <path d="M0,-58 C-2,-63 -6,-65 -6,-72 C-3,-67 -1,-68 0,-72" fill="none" stroke="#c9873a" stroke-width="0.8" stroke-linecap="round" stroke-linejoin="round" opacity="0.8"/>
    <path d="M0,-58 C2,-63 6,-65 6,-72 C3,-67 1,-68 0,-72" fill="none" stroke="#c9873a" stroke-width="0.8" stroke-linecap="round" stroke-linejoin="round" opacity="0.8"/>

    <path d="M0,-72 C-1,-76 -3,-78 -3,-83 C-1,-79 0,-80 0,-84" fill="none" stroke="#c9873a" stroke-width="0.6" stroke-linecap="round" stroke-linejoin="round" opacity="0.6"/>
    <path d="M0,-72 C1,-76 3,-78 3,-83 C1,-79 0,-80 0,-84" fill="none" stroke="#c9873a" stroke-width="0.6" stroke-linecap="round" stroke-linejoin="round" opacity="0.6"/>

    <circle cx="0" cy="-86" r="2" fill="#c9873a" opacity="0.8"/>

  </g>

</svg>